HIERARCHY
ROOT Pelvis
{
	OFFSET 0.000000 0.000000 0.000000
	CHANNELS 6 Xposition Yposition Zposition Xrotation Yrotation Zrotation
	JOINT LeftUpLeg_virtual
	{
		OFFSET 0.000000 0.000000 0.000000
		CHANNELS 3 Xrotation Yrotation Zrotation
		JOINT LeftUpLeg
		{
			OFFSET 8.479700 -4.795502 -0.379100
			CHANNELS 3 Xrotation Yrotation Zrotation
			JOINT LeftLeg
			{
				OFFSET 0.024144 -32.555107 0.112900
				CHANNELS 3 Xrotation Yrotation Zrotation
				JOINT LeftFoot
				{
					OFFSET -0.024144 -32.638630 -3.012600
					CHANNELS 3 Xrotation Yrotation Zrotation
					JOINT LeftToeBase
					{
						OFFSET 0.970200 -13.225400 11.864200
						CHANNELS 3 Xrotation Yrotation Zrotation
						End Site
						{
							OFFSET 0 0 0
						}
					}
				}
			}
		}
	}
	JOINT RightUpLeg_virtual
	{
		OFFSET 0.000000 0.000000 0.000000
		CHANNELS 3 Xrotation Yrotation Zrotation
		JOINT RightUpLeg
		{
			OFFSET -8.479700 -4.795502 -0.379100
			CHANNELS 3 Xrotation Yrotation Zrotation
			JOINT RightLeg
			{
				OFFSET -0.023144 -32.555092 0.112900
				CHANNELS 3 Xrotation Yrotation Zrotation
				JOINT RightFoot
				{
					OFFSET 0.023144 -32.638641 -3.012700
					CHANNELS 3 Xrotation Yrotation Zrotation
					JOINT RightToeBase
					{
						OFFSET -0.970200 -13.225400 11.864200
						CHANNELS 3 Xrotation Yrotation Zrotation
						End Site
						{
							OFFSET 0 0 0
						}
					}
				}
			}
		}
	}
	JOINT Hips_virtual
	{
		OFFSET 0.000000 0.000000 0.000000
		CHANNELS 3 Xrotation Yrotation Zrotation
		JOINT Hips
		{
			OFFSET -0.000000 -0.000000 -0.000000
			CHANNELS 3 Xrotation Yrotation Zrotation
			JOINT Spine
			{
				OFFSET 0.000000 7.722000 1.166200
				CHANNELS 3 Xrotation Yrotation Zrotation
				JOINT Spine1
				{
					OFFSET 0.000000 12.024101 0.248800
					CHANNELS 3 Xrotation Yrotation Zrotation
					JOINT Spine2
					{
						OFFSET 0.000000 11.502998 -0.491200
						CHANNELS 3 Xrotation Yrotation Zrotation
						JOINT Neck_virtual
						{
							OFFSET 0.000000 0.000000 0.000000
							CHANNELS 3 Xrotation Yrotation Zrotation
							JOINT Neck
							{
								OFFSET 0.000000 18.430702 -3.123100
								CHANNELS 3 Xrotation Yrotation Zrotation
								JOINT Head
								{
									OFFSET 0.000000 9.051102 1.034000
									CHANNELS 3 Xrotation Yrotation Zrotation
									End Site
									{
										OFFSET 0 0 0
									}
								}
							}
						}
						JOINT LeftShoulder_virtual
						{
							OFFSET 0.000000 0.000000 0.000000
							CHANNELS 3 Xrotation Yrotation Zrotation
							JOINT LeftShoulder
							{
								OFFSET 6.197800 13.665199 -4.064700
								CHANNELS 3 Xrotation Yrotation Zrotation
								JOINT LeftArm
								{
									OFFSET 7.778100 -0.187103 -1.709300
									CHANNELS 3 Xrotation Yrotation Zrotation
									JOINT LeftForeArm
									{
										OFFSET 22.049376 0.000000 0.000000
										CHANNELS 3 Xrotation Yrotation Zrotation
										JOINT LeftHand
										{
											OFFSET 23.009392 0.000000 0.000000
											CHANNELS 3 Xrotation Yrotation Zrotation
											End Site
											{
												OFFSET 0 0 0
											}
										}
									}
								}
							}
						}
						JOINT RightShoulder_virtual
						{
							OFFSET 0.000000 0.000000 0.000000
							CHANNELS 3 Xrotation Yrotation Zrotation
							JOINT RightShoulder
							{
								OFFSET -6.197800 13.665199 -4.064700
								CHANNELS 3 Xrotation Yrotation Zrotation
								JOINT RightArm
								{
									OFFSET -7.778100 -0.187103 -1.709300
									CHANNELS 3 Xrotation Yrotation Zrotation
									JOINT RightForeArm
									{
										OFFSET -22.049376 0.000000 0.000000
										CHANNELS 3 Xrotation Yrotation Zrotation
										JOINT RightHand
										{
											OFFSET -23.009392 0.000000 0.000000
											CHANNELS 3 Xrotation Yrotation Zrotation
											End Site
											{
												OFFSET 0 0 0
											}
										}
									}
								}
							}
						}
					}
				}
			}
		}
	}
}
MOTION
Frames: 8
Frame Time: 0.03333333
-0.516424 75.832855 2.663303 0.000000 0.000000 0.000000 -12.955931 -1.259953 -5.189451 -32.239545 19.987136 12.009118 42.598008 -9.385104 10.036151 -0.784274 -7.998695 -1.344686 0.000000 0.000000 0.000000 -12.955931 -1.259953 -5.189451 -23.746119 -36.458037 -2.453057 39.409345 9.581003 -10.299458 -2.877128 7.582067 -5.248708 0.000000 0.000000 0.000000 -12.955931 -1.259953 -5.189451 0.000000 0.000000 0.000000 5.923490 -0.636570 2.819711 9.106088 -0.324703 -0.848842 0.000000 0.000000 0.000000 9.111606 -0.022998 -0.851798 15.434441 0.560289 0.855191 0.000000 0.000000 0.000000 9.111606 -0.022998 -0.851798 0.689293 3.725265 -11.385283 59.736937 -63.314679 -9.099179 0.000012 -20.467432 0.000016 0.000000 0.000000 0.000000 9.111606 -0.022998 -0.851798 1.381297 0.020058 11.778362 9.839212 40.445337 56.843242 0.000002 26.830950 -0.000010 0.000000 0.000000 0.000000 
-0.519491 75.836845 2.668303 0.000000 0.000000 0.000000 -12.940544 -1.218788 -5.188890 -32.242482 19.970064 11.993314 42.583624 -9.387076 10.035691 -0.775799 -8.006470 -1.336513 0.000000 0.000000 0.000000 -12.940544 -1.218788 -5.188890 -23.748327 -36.489650 -2.462285 39.397160 9.581862 -10.298990 -2.882807 7.572245 -5.244790 0.000000 0.000000 0.000000 -12.940544 -1.218788 -5.188890 -0.000001 0.000000 0.000000 5.919562 -0.636753 2.823524 9.101769 -0.326364 -0.858133 0.000000 0.000000 0.000000 9.107326 -0.025738 -0.860712 15.423289 0.554961 0.870814 0.000000 0.000000 0.000000 9.107326 -0.025738 -0.860712 0.689442 3.728125 -11.389586 59.635502 -63.287099 -9.181457 0.000001 -20.479451 -0.000007 0.000000 0.000000 0.000000 9.107326 -0.025738 -0.860712 1.380292 0.014381 11.778444 9.844064 40.462546 56.845346 0.000015 26.845937 -0.000010 0.000000 0.000000 0.000000 
-0.522559 75.840378 2.673338 0.000000 0.000000 0.000000 -12.926779 -1.181642 -5.189063 -32.245443 19.954212 11.980124 42.571869 -9.388399 10.035351 -0.769305 -8.014045 -1.328609 0.000000 0.000000 0.000000 -12.926779 -1.181642 -5.189063 -23.750316 -36.525618 -2.472801 39.386194 9.582713 -10.298452 -2.888576 7.568846 -5.243446 0.000000 0.000000 0.000000 -12.926779 -1.181642 -5.189063 0.000001 0.000000 0.000000 5.916349 -0.637243 2.826835 9.098281 -0.328489 -0.866142 0.000000 0.000000 0.000000 9.103880 -0.028798 -0.868352 15.411975 0.550058 0.886043 0.000000 0.000000 0.000000 9.103880 -0.028798 -0.868352 0.689443 3.729467 -11.390502 59.511377 -63.261957 -9.286477 -0.000003 -20.488095 0.000039 0.000000 0.000000 0.000000 9.103880 -0.028798 -0.868352 1.379338 0.009007 11.778236 9.848083 40.481162 56.846674 0.000004 26.857861 -0.000018 0.000000 0.000000 0.000000 
-0.525855 75.843864 2.678551 0.000000 0.000000 0.000000 -12.913711 -1.145961 -5.189590 -32.247994 19.939264 11.968378 42.560159 -9.389730 10.034866 -0.763171 -8.021785 -1.320756 0.000000 0.000000 0.000000 -12.913711 -1.145961 -5.189590 -23.751100 -36.560261 -2.481901 39.375631 9.583463 -10.297977 -2.894604 7.564867 -5.242311 0.000000 0.000000 0.000000 -12.913711 -1.145961 -5.189590 0.000000 0.000000 0.000000 5.913450 -0.637996 2.830185 9.095246 -0.331065 -0.873291 0.000000 0.000000 0.000000 9.100892 -0.032250 -0.875140 15.400786 0.545106 0.901279 0.000000 0.000000 0.000000 9.100892 -0.032250 -0.875140 0.689395 3.730280 -11.390356 59.372143 -63.239164 -9.406521 0.000002 -20.492454 0.000018 0.000000 0.000000 0.000000 9.100892 -0.032250 -0.875140 1.378496 0.004378 11.777020 9.850223 40.499552 56.848996 0.000009 26.868047 -0.000019 0.000000 0.000000 0.000000 
-0.529305 75.847237 2.683924 0.000000 0.000000 0.000000 -12.901480 -1.111889 -5.190445 -32.250487 19.925130 11.958005 42.549852 -9.390796 10.034503 -0.758190 -8.029598 -1.312953 0.000000 0.000000 0.000000 -12.901480 -1.111889 -5.190445 -23.750960 -36.594152 -2.490054 39.365676 9.584092 -10.297566 -2.900981 7.561032 -5.241567 0.000000 0.000000 0.000000 -12.901480 -1.111889 -5.190445 0.000000 0.000000 0.000000 5.910920 -0.639042 2.833519 9.092753 -0.334137 -0.879477 0.000000 0.000000 0.000000 9.098460 -0.036119 -0.880976 15.389697 0.540275 0.916376 0.000000 0.000000 0.000000 9.098460 -0.036119 -0.880976 0.689259 3.730461 -11.388660 59.216258 -63.219370 -9.543479 0.000017 -20.491787 0.000008 0.000000 0.000000 0.000000 9.098460 -0.036119 -0.880976 1.377772 0.000540 11.774925 9.850697 40.518127 56.852125 0.000000 26.876193 -0.000013 0.000000 0.000000 0.000000 
-0.532814 75.850464 2.689384 0.000000 0.000000 0.000000 -12.890269 -1.079463 -5.191679 -32.252495 19.911789 11.949056 42.540068 -9.391921 10.034045 -0.753762 -8.037141 -1.305570 0.000000 0.000000 0.000000 -12.890269 -1.079463 -5.191679 -23.749705 -36.627921 -2.497612 39.356189 9.584823 -10.297162 -2.907529 7.558000 -5.241323 0.000000 0.000000 0.000000 -12.890269 -1.079463 -5.191679 -0.000001 0.000000 0.000000 5.908815 -0.640408 2.836790 9.090878 -0.337759 -0.884631 0.000000 0.000000 0.000000 9.096652 -0.040435 -0.885785 15.378693 0.535758 0.931207 0.000000 0.000000 0.000000 9.096652 -0.040435 -0.885785 0.689039 3.729956 -11.384967 59.042361 -63.203101 -9.698999 -0.000012 -20.485443 0.000001 0.000000 0.000000 0.000000 9.096652 -0.040435 -0.885785 1.377181 -0.002457 11.772127 9.849935 40.537402 56.855632 -0.000003 26.882093 0.000001 0.000000 0.000000 0.000000 
-0.536274 75.853516 2.694849 0.000000 0.000000 0.000000 -12.880138 -1.048672 -5.193174 -32.254073 19.899148 11.941081 42.531550 -9.392851 10.033633 -0.750299 -8.044126 -1.298060 0.000000 0.000000 0.000000 -12.880138 -1.048672 -5.193174 -23.747897 -36.662181 -2.505213 39.347398 9.585546 -10.296768 -2.914180 7.556395 -5.241771 0.000000 0.000000 0.000000 -12.880138 -1.048672 -5.193174 0.000000 0.000000 0.000001 5.907204 -0.642137 2.839913 9.089676 -0.341986 -0.888691 0.000000 0.000000 0.000000 9.095517 -0.045239 -0.889513 15.367738 0.531762 0.945649 0.000000 0.000000 0.000000 9.095517 -0.045239 -0.889513 0.688683 3.728787 -11.378839 58.849347 -63.190847 -9.874615 0.000009 -20.472935 -0.000010 0.000000 0.000000 0.000000 9.095517 -0.045239 -0.889513 1.376741 -0.004523 11.768822 9.848452 40.558128 56.859074 0.000010 26.885310 -0.000011 0.000000 0.000000 0.000000 
-0.539567 75.856308 2.700251 0.000000 0.000000 0.000000 -12.871206 -1.019330 -5.194913 -32.255230 19.886979 11.933844 42.524334 -9.393785 10.033211 -0.747596 -8.050149 -1.290327 0.000000 0.000000 0.000000 -12.871206 -1.019330 -5.194913 -23.745749 -36.697264 -2.513379 39.339465 9.586387 -10.296324 -2.920924 7.556564 -5.242910 0.000000 0.000000 0.000000 -12.871206 -1.019330 -5.194913 0.000000 0.000000 0.000000 5.906111 -0.644264 2.842861 9.089192 -0.346884 -0.891642 0.000000 0.000000 0.000000 9.095123 -0.050574 -0.892145 15.356926 0.528488 0.959596 0.000000 0.000000 0.000000 9.095123 -0.050574 -0.892145 0.688182 3.727048 -11.369931 58.636812 -63.182665 -10.071113 0.000001 -20.454157 -0.000004 0.000000 0.000000 0.000000 9.095123 -0.050574 -0.892145 1.376486 -0.005541 11.765175 9.847058 40.580917 56.861765 0.000000 26.885838 0.000036 0.000000 0.000000 0.000000 
